<?xml version="1.0" encoding="UTF-8"?>
<svg width="128" height="128" viewBox="0 0 128 128" xmlns="http://www.w3.org/2000/svg">
  <!-- Background -->
  <rect width="128" height="128" rx="16" fill="#0078d4"/>
  
  <!-- Main content background -->
  <rect x="16" y="16" width="96" height="96" rx="8" fill="#ffffff" opacity="0.1"/>
  
  <!-- 1C Text -->
  <text x="24" y="48" font-family="Arial, sans-serif" font-size="28" font-weight="bold" fill="white">1C</text>
  
  <!-- Tree structure -->
  <g transform="translate(24, 60)">
    <!-- Main folder icon -->
    <path d="M0 8 L8 8 L10 4 L24 4 L24 24 L0 24 Z" fill="white" opacity="0.9"/>
    
    <!-- Tree lines -->
    <line x1="12" y1="16" x2="32" y2="16" stroke="white" stroke-width="2" opacity="0.8"/>
    <line x1="32" y1="16" x2="32" y2="8" stroke="white" stroke-width="2" opacity="0.8"/>
    <line x1="32" y1="8" x2="44" y2="8" stroke="white" stroke-width="2" opacity="0.8"/>
    
    <line x1="32" y1="16" x2="32" y2="24" stroke="white" stroke-width="2" opacity="0.8"/>
    <line x1="32" y1="24" x2="44" y2="24" stroke="white" stroke-width="2" opacity="0.8"/>
    
    <!-- Document icons -->
    <rect x="44" y="4" width="12" height="16" rx="1" fill="#ffd700"/>
    <rect x="44" y="20" width="12" height="16" rx="1" fill="#ffd700"/>
    
    <!-- Lines in documents -->
    <line x1="46" y1="8" x2="54" y2="8" stroke="#0078d4" stroke-width="1"/>
    <line x1="46" y1="11" x2="54" y2="11" stroke="#0078d4" stroke-width="1"/>
    <line x1="46" y1="14" x2="52" y2="14" stroke="#0078d4" stroke-width="1"/>
    
    <line x1="46" y1="24" x2="54" y2="24" stroke="#0078d4" stroke-width="1"/>
    <line x1="46" y1="27" x2="54" y2="27" stroke="#0078d4" stroke-width="1"/>
    <line x1="46" y1="30" x2="52" y2="30" stroke="#0078d4" stroke-width="1"/>
  </g>
  
  <!-- Configuration symbol -->
  <circle cx="88" cy="32" r="8" fill="none" stroke="white" stroke-width="2"/>
  <circle cx="88" cy="32" r="4" fill="white"/>
</svg>